%TF.GenerationSoftware,Altium Limited,Altium Designer,26.2.0 (7)*%
G04 Layer_Color=65535*
%FSLAX45Y45*%
%MOMM*%
%TF.SameCoordinates,BFD0C231-D01E-4025-B592-F1B292206DE3*%
%TF.FilePolarity,Positive*%
%TF.FileFunction,Legend,Top*%
%TF.Part,Single*%
G01*
G75*
%TA.AperFunction,NonConductor*%
%ADD17C,0.25000*%
%ADD18C,0.20000*%
%ADD19C,0.25400*%
G36*
X15989999Y6040000D02*
X15770976D01*
Y8244117D01*
X15989999D01*
Y6040000D01*
D02*
G37*
%LPC*%
G36*
X15799194Y8132490D02*
Y8105941D01*
D01*
Y8132490D01*
D02*
G37*
G36*
X15961781Y8218717D02*
X15799194D01*
Y8186294D01*
X15880019Y8105941D01*
X15799194D01*
Y8084325D01*
X15961781D01*
Y8186294D01*
Y8105941D01*
X15905392D01*
X15879784Y8132490D01*
X15961781Y8190288D01*
Y8218717D01*
D02*
G37*
G36*
Y8064355D02*
X15799194D01*
D01*
X15961781D01*
X15917610Y8036396D01*
X15912910Y8033106D01*
X15908682Y8030052D01*
X15905157Y8026998D01*
X15901868Y8024413D01*
X15899519Y8022064D01*
X15897639Y8020184D01*
X15896465Y8019009D01*
X15895995Y8018539D01*
X15894585Y8016660D01*
X15892940Y8014545D01*
X15890356Y8010316D01*
X15889417Y8008437D01*
X15888477Y8007027D01*
X15888007Y8006087D01*
X15887772Y8005617D01*
X15887067Y8009846D01*
X15886362Y8013840D01*
X15885187Y8017365D01*
X15884247Y8020889D01*
X15883072Y8023943D01*
X15881664Y8026763D01*
X15880489Y8029347D01*
X15879314Y8031697D01*
X15877904Y8033576D01*
X15876729Y8035456D01*
X15875789Y8036866D01*
X15874849Y8038040D01*
X15874144Y8038980D01*
X15873439Y8039685D01*
X15873204Y8039920D01*
X15872971Y8040155D01*
X15870621Y8042034D01*
X15868271Y8043914D01*
X15863338Y8046733D01*
X15858403Y8048613D01*
X15853703Y8050023D01*
X15849709Y8050963D01*
X15848065Y8051198D01*
X15846420D01*
X15845245Y8051432D01*
X15844305D01*
X15843835D01*
X15843600D01*
X15838667Y8051198D01*
X15834203Y8050493D01*
X15829974Y8049318D01*
X15826450Y8048143D01*
X15823395Y8046733D01*
X15821046Y8045794D01*
X15819637Y8044854D01*
X15819402Y8044619D01*
X15819167D01*
X15815407Y8041800D01*
X15812117Y8038980D01*
X15809299Y8035926D01*
X15807184Y8033106D01*
X15805539Y8030522D01*
X15804599Y8028407D01*
X15803894Y8026998D01*
X15803659Y8026763D01*
Y8026528D01*
X15802954Y8024413D01*
X15802251Y8021829D01*
X15801076Y8016660D01*
X15800369Y8011021D01*
X15799664Y8005852D01*
X15799429Y8000918D01*
Y7998804D01*
X15799194Y7996924D01*
Y7921505D01*
X15961781D01*
Y8064355D01*
D02*
G37*
G36*
X15964600Y7893546D02*
X15796376D01*
D01*
X15880959D01*
X15872031Y7893076D01*
X15863806Y7892136D01*
X15860046Y7891432D01*
X15856288Y7890492D01*
X15852998Y7889552D01*
X15849944Y7888847D01*
X15847125Y7887907D01*
X15844540Y7886967D01*
X15842426Y7886263D01*
X15840546Y7885323D01*
X15839137Y7884853D01*
X15838197Y7884383D01*
X15837492Y7883913D01*
X15837257D01*
X15830444Y7880154D01*
X15824335Y7875690D01*
X15819167Y7870991D01*
X15814937Y7866762D01*
X15811649Y7862768D01*
X15810239Y7860888D01*
X15809064Y7859478D01*
X15808357Y7858069D01*
X15807652Y7857129D01*
X15807417Y7856659D01*
X15807184Y7856424D01*
X15805304Y7852900D01*
X15803659Y7849375D01*
X15800841Y7842562D01*
X15798959Y7835513D01*
X15797786Y7829405D01*
X15797316Y7826585D01*
X15796846Y7823766D01*
X15796611Y7821651D01*
Y7819537D01*
X15796376Y7817892D01*
Y7853370D01*
Y7817892D01*
D01*
Y7815778D01*
X15796611Y7809434D01*
X15797316Y7803560D01*
X15798489Y7797921D01*
X15799899Y7792518D01*
X15801781Y7787584D01*
X15803659Y7782885D01*
X15805774Y7778656D01*
X15807887Y7774896D01*
X15810004Y7771372D01*
X15812117Y7768318D01*
X15813997Y7765733D01*
X15815877Y7763619D01*
X15817287Y7761974D01*
X15818462Y7760564D01*
X15819167Y7759860D01*
X15819402Y7759625D01*
X15823865Y7755865D01*
X15828564Y7752576D01*
X15833733Y7749522D01*
X15838902Y7747172D01*
X15844305Y7745058D01*
X15849475Y7743178D01*
X15854643Y7741768D01*
X15859576Y7740829D01*
X15864276Y7739889D01*
X15868739Y7739184D01*
X15872736Y7738714D01*
X15876024Y7738244D01*
X15878844D01*
X15880959Y7738009D01*
X15882837D01*
X15890826Y7738479D01*
X15898109Y7739419D01*
X15905157Y7740829D01*
X15908212Y7741768D01*
X15911266Y7742708D01*
X15913850Y7743413D01*
X15916200Y7744353D01*
X15918315Y7745058D01*
X15920193Y7745763D01*
X15921603Y7746232D01*
X15922543Y7746702D01*
X15923248Y7747172D01*
X15923483D01*
X15930296Y7751166D01*
X15936171Y7755395D01*
X15941341Y7760094D01*
X15945569Y7764559D01*
X15949094Y7768553D01*
X15950504Y7770197D01*
X15951443Y7771607D01*
X15952383Y7773017D01*
X15953087Y7773957D01*
X15953322Y7774426D01*
X15953557Y7774661D01*
X15955437Y7778186D01*
X15957082Y7781710D01*
X15959901Y7788758D01*
X15961781Y7795572D01*
X15963190Y7801916D01*
X15963660Y7804970D01*
X15963895Y7807554D01*
X15964365Y7809904D01*
Y7812018D01*
X15964600Y7813428D01*
Y7893546D01*
D02*
G37*
G36*
X15961781Y7724382D02*
X15799194D01*
D01*
X15961781D01*
D01*
D02*
G37*
G36*
X15799194D02*
Y7702532D01*
X15903748Y7677157D01*
X15911031Y7675278D01*
X15917610Y7673868D01*
X15923718Y7672458D01*
X15928888Y7671283D01*
X15931236Y7670579D01*
X15933353Y7670344D01*
X15934996Y7669874D01*
X15936406Y7669639D01*
X15937581Y7669169D01*
X15938521D01*
X15938989Y7668934D01*
X15939224D01*
X15928888Y7667289D01*
X15918785Y7665175D01*
X15909152Y7663060D01*
X15904688Y7662120D01*
X15900224Y7660946D01*
X15896230Y7660006D01*
X15892705Y7659066D01*
X15889651Y7658126D01*
X15886832Y7657421D01*
X15884717Y7656951D01*
X15883072Y7656482D01*
X15881898Y7656012D01*
X15881664D01*
X15799194Y7632987D01*
Y7606907D01*
X15909152Y7576129D01*
X15910092Y7575894D01*
X15911501Y7575424D01*
X15913380Y7574954D01*
X15915495Y7574484D01*
X15917845Y7573779D01*
X15920428Y7573309D01*
X15925598Y7571900D01*
X15930766Y7570725D01*
X15933118Y7570020D01*
X15934996Y7569550D01*
X15936876Y7569315D01*
X15938051Y7568845D01*
X15938989Y7568610D01*
X15939224D01*
X15933118Y7567435D01*
X15927008Y7566261D01*
X15921368Y7565086D01*
X15916435Y7563911D01*
X15914085Y7563441D01*
X15911971Y7562971D01*
X15910327Y7562502D01*
X15908682Y7562267D01*
X15907507Y7562032D01*
X15906567Y7561797D01*
X15906097Y7561562D01*
X15905862D01*
X15799194Y7537362D01*
Y7515042D01*
D01*
X15961781Y7557568D01*
Y7580123D01*
X15837962Y7614425D01*
X15834908Y7615365D01*
X15831618Y7616070D01*
X15828329Y7617010D01*
X15825510Y7617715D01*
X15822925Y7618420D01*
X15820811Y7618890D01*
X15819402Y7619124D01*
X15819167Y7619359D01*
X15818932D01*
X15819637Y7619594D01*
X15820811Y7619829D01*
X15823395Y7620534D01*
X15826450Y7621474D01*
X15829739Y7622414D01*
X15832793Y7623119D01*
X15835378Y7623823D01*
X15836552Y7624058D01*
X15837257Y7624293D01*
X15837727Y7624528D01*
X15837962D01*
X15961781Y7658596D01*
Y7679742D01*
X15799194Y7724382D01*
D02*
G37*
G36*
X15961781Y7507758D02*
X15799194D01*
Y7379006D01*
X15818462D01*
Y7432574D01*
X15961781D01*
Y7507758D01*
D02*
G37*
G36*
Y7361384D02*
X15799194D01*
Y7239915D01*
X15961781D01*
Y7361384D01*
D02*
G37*
G36*
Y7203498D02*
X15799194D01*
Y7075450D01*
X15961781D01*
Y7096126D01*
X15834203D01*
X15961781Y7181178D01*
Y7203498D01*
D02*
G37*
G36*
Y6984994D02*
X15846420D01*
X15841956Y6984759D01*
X15837727Y6984290D01*
X15833968Y6983350D01*
X15830679Y6982645D01*
X15827859Y6981705D01*
X15825745Y6980765D01*
X15824570Y6980295D01*
X15824100Y6980060D01*
X15820576Y6978181D01*
X15817522Y6975831D01*
X15814702Y6973717D01*
X15812587Y6971602D01*
X15810944Y6969723D01*
X15809534Y6968313D01*
X15808829Y6967373D01*
X15808594Y6966903D01*
X15806714Y6963849D01*
X15805069Y6960325D01*
X15803659Y6957035D01*
X15802486Y6953981D01*
X15801781Y6951162D01*
X15801311Y6949047D01*
X15800841Y6947402D01*
Y6946933D01*
X15800369Y6943408D01*
X15799899Y6939414D01*
X15799664Y6935185D01*
X15799429Y6931191D01*
X15799194Y6927667D01*
Y6984994D01*
D01*
D01*
Y6860941D01*
X15961781D01*
Y6903349D01*
Y6882556D01*
X15895760D01*
Y6924142D01*
X15895525Y6930251D01*
X15895055Y6936125D01*
X15894350Y6941294D01*
X15893410Y6945993D01*
X15892470Y6950457D01*
X15891296Y6954216D01*
X15889886Y6957740D01*
X15888477Y6960795D01*
X15887302Y6963379D01*
X15885892Y6965729D01*
X15884717Y6967608D01*
X15883542Y6969018D01*
X15882837Y6970193D01*
X15882133Y6970897D01*
X15881664Y6971367D01*
X15881429Y6971602D01*
X15878609Y6973952D01*
X15875789Y6976066D01*
X15872971Y6977711D01*
X15869914Y6979356D01*
X15866861Y6980765D01*
X15864041Y6981705D01*
X15858638Y6983350D01*
X15856053Y6983820D01*
X15853703Y6984290D01*
X15851588Y6984525D01*
X15849944Y6984759D01*
X15848300Y6984994D01*
X15961781D01*
D02*
G37*
G36*
X15897169Y6824993D02*
X15799194D01*
Y6697181D01*
X15897874D01*
X15902338Y6697416D01*
X15906567Y6697651D01*
X15910562Y6698120D01*
X15914085Y6698590D01*
X15917375Y6699060D01*
X15920428Y6699765D01*
X15923248Y6700235D01*
X15925833Y6700705D01*
X15927948Y6701410D01*
X15929826Y6701880D01*
X15931236Y6702350D01*
X15932413Y6702819D01*
X15933353Y6703054D01*
X15933823Y6703289D01*
X15934058D01*
X15939224Y6705874D01*
X15943924Y6709163D01*
X15947684Y6712452D01*
X15950974Y6715977D01*
X15953557Y6719031D01*
X15955437Y6721615D01*
X15955907Y6722555D01*
X15956377Y6723260D01*
X15956847Y6723730D01*
Y6723965D01*
X15959431Y6729839D01*
X15961311Y6735947D01*
X15962720Y6742291D01*
X15963660Y6748165D01*
X15963895Y6750749D01*
X15964130Y6753334D01*
X15964365Y6755683D01*
Y6757563D01*
X15964600Y6759207D01*
Y6789046D01*
Y6761322D01*
X15964130Y6769780D01*
X15963660Y6773539D01*
X15963190Y6777064D01*
X15962485Y6780588D01*
X15961781Y6783642D01*
X15961076Y6786462D01*
X15960136Y6789046D01*
X15959196Y6791396D01*
X15958492Y6793275D01*
X15957787Y6795155D01*
X15957082Y6796565D01*
X15956377Y6797739D01*
X15956142Y6798444D01*
X15955672Y6798914D01*
Y6799149D01*
X15952148Y6804318D01*
X15948154Y6808547D01*
X15944394Y6811836D01*
X15940636Y6814656D01*
X15937346Y6816770D01*
X15934761Y6818180D01*
X15933823Y6818650D01*
X15933118Y6819120D01*
X15932648Y6819355D01*
X15932413D01*
X15929591Y6820294D01*
X15926538Y6821234D01*
X15920193Y6822644D01*
X15913615Y6823584D01*
X15907272Y6824289D01*
X15904453Y6824524D01*
X15901633Y6824759D01*
X15899284D01*
X15897169Y6824993D01*
D02*
G37*
G36*
X15961781Y6608135D02*
X15942516D01*
Y6528017D01*
X15799194D01*
Y6608135D01*
D01*
D01*
Y6506401D01*
X15961781D01*
Y6608135D01*
D02*
G37*
G36*
Y6481732D02*
X15942516D01*
Y6401614D01*
X15799194D01*
Y6481732D01*
D01*
D01*
Y6379998D01*
X15961781D01*
Y6481732D01*
D02*
G37*
G36*
X15897169Y6344991D02*
X15799194D01*
Y6217178D01*
X15897874D01*
X15902338Y6217413D01*
X15906567Y6217648D01*
X15910562Y6218118D01*
X15914085Y6218588D01*
X15917375Y6219057D01*
X15920428Y6219762D01*
X15923248Y6220232D01*
X15925833Y6220702D01*
X15927948Y6221407D01*
X15929826Y6221877D01*
X15931236Y6222347D01*
X15932413Y6222817D01*
X15933353Y6223052D01*
X15933823Y6223287D01*
X15934058D01*
X15939224Y6225871D01*
X15943924Y6229160D01*
X15947684Y6232450D01*
X15950974Y6235974D01*
X15953557Y6239028D01*
X15955437Y6241613D01*
X15955907Y6242552D01*
X15956377Y6243257D01*
X15956847Y6243727D01*
Y6243962D01*
X15959431Y6249836D01*
X15961311Y6255945D01*
X15962720Y6262288D01*
X15963660Y6268162D01*
X15963895Y6270746D01*
X15964130Y6273331D01*
X15964365Y6275680D01*
Y6277560D01*
X15964600Y6279205D01*
Y6281319D01*
X15964130Y6289777D01*
X15963660Y6293537D01*
X15963190Y6297061D01*
X15962485Y6300585D01*
X15961781Y6303639D01*
X15961076Y6306459D01*
X15960136Y6309043D01*
X15959196Y6311393D01*
X15958492Y6313272D01*
X15957787Y6315152D01*
X15957082Y6316562D01*
X15956377Y6317736D01*
X15956142Y6318441D01*
X15955672Y6318911D01*
Y6319146D01*
X15952148Y6324315D01*
X15948154Y6328544D01*
X15944394Y6331833D01*
X15940636Y6334653D01*
X15937346Y6336767D01*
X15934761Y6338177D01*
X15933823Y6338647D01*
X15933118Y6339117D01*
X15932648Y6339352D01*
X15932413D01*
X15929591Y6340292D01*
X15926538Y6341231D01*
X15920193Y6342641D01*
X15913615Y6343581D01*
X15907272Y6344286D01*
X15904453Y6344521D01*
X15901633Y6344756D01*
X15899284D01*
X15897169Y6344991D01*
D02*
G37*
G36*
X15961781Y6189454D02*
Y6087016D01*
X15895760D01*
Y6128602D01*
X15895525Y6134710D01*
X15895055Y6140584D01*
X15894350Y6145753D01*
X15893410Y6150452D01*
X15892470Y6154916D01*
X15891296Y6158675D01*
X15889886Y6162200D01*
X15888477Y6165254D01*
X15887302Y6167838D01*
X15885892Y6170188D01*
X15884717Y6172067D01*
X15883542Y6173477D01*
X15882837Y6174652D01*
X15882133Y6175357D01*
X15881664Y6175827D01*
X15881429Y6176062D01*
X15878609Y6178411D01*
X15875789Y6180526D01*
X15872971Y6182170D01*
X15869914Y6183815D01*
X15866861Y6185225D01*
X15864041Y6186164D01*
X15858638Y6187809D01*
X15856053Y6188279D01*
X15853703Y6188749D01*
X15851588Y6188984D01*
X15849944Y6189219D01*
X15848300Y6189454D01*
X15961781D01*
X15846420D01*
X15841956Y6189219D01*
X15837727Y6188749D01*
X15833968Y6187809D01*
X15830679Y6187104D01*
X15827859Y6186164D01*
X15825745Y6185225D01*
X15824570Y6184755D01*
X15824100Y6184520D01*
X15820576Y6182640D01*
X15817522Y6180291D01*
X15814702Y6178176D01*
X15812587Y6176062D01*
X15810944Y6174182D01*
X15809534Y6172772D01*
X15808829Y6171832D01*
X15808594Y6171363D01*
X15806714Y6168308D01*
X15805069Y6164784D01*
X15803659Y6161495D01*
X15802486Y6158440D01*
X15801781Y6155621D01*
X15801311Y6153506D01*
X15800841Y6151862D01*
Y6151392D01*
X15800369Y6147868D01*
X15799899Y6143873D01*
X15799664Y6139644D01*
X15799429Y6135650D01*
X15799194Y6132126D01*
Y6065400D01*
X15961781D01*
Y6189454D01*
D02*
G37*
%LPD*%
G36*
X15865216Y8147527D02*
X15799194Y8215663D01*
Y8218717D01*
X15961781D01*
X15865216Y8147527D01*
D02*
G37*
G36*
X15961781Y7943121D02*
X15889651D01*
Y7970845D01*
X15889886Y7973429D01*
Y7975309D01*
X15890121Y7976953D01*
X15890356Y7978128D01*
Y7979068D01*
X15890591Y7979538D01*
Y7979773D01*
X15891766Y7983532D01*
X15892470Y7985177D01*
X15893175Y7986586D01*
X15893880Y7987996D01*
X15894350Y7988936D01*
X15894585Y7989406D01*
X15894820Y7989641D01*
X15896230Y7991520D01*
X15897874Y7993400D01*
X15901398Y7996924D01*
X15903043Y7998569D01*
X15904453Y7999743D01*
X15905392Y8000448D01*
X15905627Y8000683D01*
X15908917Y8003033D01*
X15912440Y8005617D01*
X15916200Y8008202D01*
X15919725Y8010786D01*
X15923013Y8012901D01*
X15925598Y8014545D01*
X15926538Y8015250D01*
X15927243Y8015720D01*
X15927713Y8016190D01*
X15927948D01*
X15961781Y8037570D01*
Y7943121D01*
D02*
G37*
G36*
X15846655Y8029112D02*
X15849475Y8028642D01*
X15851823Y8027937D01*
X15853938Y8027233D01*
X15855818Y8026293D01*
X15857228Y8025588D01*
X15858168Y8025118D01*
X15858403Y8024883D01*
X15860751Y8023238D01*
X15862868Y8021124D01*
X15864511Y8019009D01*
X15865921Y8016895D01*
X15866861Y8015015D01*
X15867566Y8013606D01*
X15868036Y8012666D01*
X15868271Y8012196D01*
X15869209Y8008907D01*
X15869914Y8005147D01*
X15870386Y8001388D01*
X15870621Y7997629D01*
X15870856Y7994340D01*
X15871091Y7991520D01*
Y7943121D01*
X15817287D01*
Y7994340D01*
X15817522Y8000683D01*
X15818462Y8006087D01*
X15819637Y8010786D01*
X15821046Y8014310D01*
X15822455Y8017365D01*
X15823630Y8019244D01*
X15824570Y8020419D01*
X15824805Y8020889D01*
X15827859Y8023708D01*
X15830913Y8025823D01*
X15834203Y8027233D01*
X15837022Y8028407D01*
X15839842Y8028877D01*
X15841956Y8029112D01*
X15843365Y8029347D01*
X15843600D01*
X15843835D01*
X15846655Y8029112D01*
D02*
G37*
G36*
X15964600Y7815778D02*
X15964130Y7823531D01*
X15962955Y7830814D01*
X15961546Y7837628D01*
X15960606Y7840682D01*
X15959666Y7843502D01*
X15958727Y7846086D01*
X15957787Y7848436D01*
X15957082Y7850315D01*
X15956377Y7851960D01*
X15955672Y7853370D01*
X15955202Y7854544D01*
X15954732Y7855014D01*
Y7855249D01*
X15950504Y7861828D01*
X15945804Y7867467D01*
X15940871Y7872166D01*
X15936171Y7876160D01*
X15931706Y7879449D01*
X15930061Y7880624D01*
X15928418Y7881564D01*
X15927008Y7882503D01*
X15926068Y7882973D01*
X15925363Y7883443D01*
X15925128D01*
X15921368Y7885323D01*
X15917610Y7886733D01*
X15910092Y7889317D01*
X15902573Y7891197D01*
X15895760Y7892371D01*
X15892705Y7892606D01*
X15889886Y7893076D01*
X15887302Y7893311D01*
X15885187D01*
X15883307Y7893546D01*
X15964600D01*
Y7815778D01*
D02*
G37*
G36*
X15886362Y7871226D02*
X15891766Y7870756D01*
X15896935Y7870051D01*
X15901633Y7869111D01*
X15905862Y7867702D01*
X15909857Y7866527D01*
X15913615Y7865117D01*
X15916905Y7863707D01*
X15919725Y7862063D01*
X15922308Y7860653D01*
X15924425Y7859478D01*
X15926068Y7858304D01*
X15927478Y7857129D01*
X15928653Y7856424D01*
X15929123Y7855954D01*
X15929358Y7855719D01*
X15932413Y7852665D01*
X15934996Y7849375D01*
X15937111Y7846086D01*
X15939224Y7842797D01*
X15940871Y7839508D01*
X15942046Y7835983D01*
X15943221Y7832929D01*
X15944159Y7829640D01*
X15944864Y7826820D01*
X15945334Y7824001D01*
X15945804Y7821651D01*
X15946039Y7819537D01*
Y7817892D01*
X15946274Y7816717D01*
Y7815543D01*
X15946039Y7811079D01*
X15945569Y7806850D01*
X15944629Y7803090D01*
X15943689Y7799331D01*
X15942281Y7795807D01*
X15940871Y7792518D01*
X15939461Y7789463D01*
X15937816Y7786644D01*
X15936171Y7784294D01*
X15934761Y7782180D01*
X15933353Y7780300D01*
X15931943Y7778656D01*
X15931001Y7777481D01*
X15930061Y7776541D01*
X15929591Y7776071D01*
X15929358Y7775836D01*
X15926068Y7773017D01*
X15922543Y7770667D01*
X15918785Y7768553D01*
X15915025Y7766673D01*
X15911031Y7765263D01*
X15907272Y7763854D01*
X15899754Y7761974D01*
X15896465Y7761504D01*
X15893175Y7761034D01*
X15890356Y7760564D01*
X15888007Y7760329D01*
X15885892Y7760094D01*
X15884247D01*
X15883307D01*
X15883072D01*
X15876494Y7760329D01*
X15870386Y7760799D01*
X15864511Y7761504D01*
X15859341Y7762679D01*
X15854643Y7763854D01*
X15850414Y7765263D01*
X15846420Y7766908D01*
X15843130Y7768318D01*
X15840077Y7769962D01*
X15837492Y7771372D01*
X15835378Y7772782D01*
X15833733Y7773957D01*
X15832323Y7775131D01*
X15831383Y7775836D01*
X15830913Y7776306D01*
X15830679Y7776541D01*
X15827859Y7779595D01*
X15825510Y7782885D01*
X15823395Y7786174D01*
X15821515Y7789698D01*
X15820107Y7792987D01*
X15818697Y7796277D01*
X15816817Y7802385D01*
X15816347Y7805205D01*
X15815877Y7807789D01*
X15815407Y7809904D01*
X15815172Y7812018D01*
X15814937Y7813663D01*
Y7815778D01*
X15815172Y7821651D01*
X15816112Y7827290D01*
X15817522Y7832224D01*
X15818932Y7836453D01*
X15820576Y7839977D01*
X15821281Y7841387D01*
X15821750Y7842562D01*
X15822455Y7843737D01*
X15822690Y7844442D01*
X15823160Y7844676D01*
Y7844911D01*
X15826450Y7849375D01*
X15830209Y7853370D01*
X15833968Y7856894D01*
X15837727Y7859713D01*
X15841016Y7861828D01*
X15843835Y7863472D01*
X15844775Y7863942D01*
X15845480Y7864412D01*
X15845950Y7864647D01*
X15846185D01*
X15851823Y7866997D01*
X15857933Y7868641D01*
X15863573Y7869816D01*
X15868974Y7870521D01*
X15871561Y7870991D01*
X15873674Y7871226D01*
X15875789D01*
X15877434Y7871461D01*
X15878844D01*
X15879784D01*
X15880489D01*
X15880724D01*
X15886362Y7871226D01*
D02*
G37*
G36*
X15961781Y7454190D02*
X15818462D01*
Y7507758D01*
X15961781D01*
Y7454190D01*
D02*
G37*
G36*
X15942516Y7261531D02*
X15887302D01*
Y7351516D01*
X15868036D01*
Y7261531D01*
X15818462D01*
Y7357625D01*
X15799194D01*
Y7361384D01*
X15942516D01*
Y7261531D01*
D02*
G37*
G36*
X15799194Y7097535D02*
Y7182822D01*
X15927008D01*
X15799194Y7097535D01*
D02*
G37*
G36*
X15852058Y6962439D02*
X15856288Y6961499D01*
X15860046Y6960090D01*
X15863103Y6958445D01*
X15865451Y6956800D01*
X15867331Y6955391D01*
X15868271Y6954451D01*
X15868739Y6953981D01*
X15870151Y6952336D01*
X15871326Y6950222D01*
X15873204Y6945758D01*
X15874614Y6940824D01*
X15875554Y6935890D01*
X15876024Y6931426D01*
X15876259Y6929546D01*
Y6927902D01*
X15876494Y6926257D01*
Y6882556D01*
X15818462D01*
Y6929076D01*
X15818697Y6933305D01*
X15818932Y6936830D01*
X15819167Y6939649D01*
X15819637Y6941529D01*
X15819872Y6942938D01*
X15820107Y6943878D01*
Y6944113D01*
X15821281Y6947167D01*
X15822690Y6949752D01*
X15824100Y6952101D01*
X15825745Y6954216D01*
X15827390Y6955626D01*
X15828564Y6956800D01*
X15829504Y6957505D01*
X15829739Y6957740D01*
X15832558Y6959385D01*
X15835378Y6960795D01*
X15838432Y6961734D01*
X15841016Y6962204D01*
X15843365Y6962674D01*
X15845480Y6962909D01*
X15846655D01*
X15846890D01*
X15847125D01*
X15852058Y6962439D01*
D02*
G37*
G36*
X15903748Y6802908D02*
X15908212Y6802438D01*
X15912440Y6801733D01*
X15916200Y6801029D01*
X15919725Y6800089D01*
X15922778Y6799384D01*
X15925363Y6798444D01*
X15927478Y6797504D01*
X15929591Y6796565D01*
X15931001Y6795625D01*
X15932413Y6794920D01*
X15933353Y6794215D01*
X15934058Y6793745D01*
X15934291Y6793510D01*
X15934526Y6793275D01*
X15936406Y6791161D01*
X15938051Y6788811D01*
X15940636Y6783642D01*
X15942516Y6778238D01*
X15943689Y6772600D01*
X15944629Y6767431D01*
X15944864Y6765316D01*
Y6763202D01*
X15945099Y6761792D01*
Y6759442D01*
X15944864Y6754508D01*
X15944159Y6750044D01*
X15943456Y6745815D01*
X15942281Y6742526D01*
X15941341Y6739707D01*
X15940636Y6737592D01*
X15939931Y6736417D01*
X15939696Y6735947D01*
X15937581Y6732658D01*
X15934996Y6729839D01*
X15932413Y6727489D01*
X15930061Y6725845D01*
X15927713Y6724435D01*
X15926068Y6723260D01*
X15924893Y6722790D01*
X15924425Y6722555D01*
X15922308Y6721850D01*
X15920193Y6721381D01*
X15915260Y6720441D01*
X15910092Y6719736D01*
X15904922Y6719266D01*
X15900459Y6719031D01*
X15898344D01*
X15896700Y6718796D01*
X15895290D01*
X15894115D01*
X15893410D01*
X15893175D01*
X15799194D01*
Y6803378D01*
X15893175D01*
X15898579D01*
X15903748Y6802908D01*
D02*
G37*
G36*
Y6322905D02*
X15908212Y6322435D01*
X15912440Y6321731D01*
X15916200Y6321026D01*
X15919725Y6320086D01*
X15922778Y6319381D01*
X15925363Y6318441D01*
X15927478Y6317501D01*
X15929591Y6316562D01*
X15931001Y6315622D01*
X15932413Y6314917D01*
X15933353Y6314212D01*
X15934058Y6313742D01*
X15934291Y6313507D01*
X15934526Y6313272D01*
X15936406Y6311158D01*
X15938051Y6308808D01*
X15940636Y6303639D01*
X15942516Y6298236D01*
X15943689Y6292597D01*
X15944629Y6287428D01*
X15944864Y6285313D01*
Y6283199D01*
X15945099Y6281789D01*
Y6279440D01*
X15944864Y6274506D01*
X15944159Y6270042D01*
X15943456Y6265812D01*
X15942281Y6262523D01*
X15941341Y6259704D01*
X15940636Y6257589D01*
X15939931Y6256414D01*
X15939696Y6255945D01*
X15937581Y6252655D01*
X15934996Y6249836D01*
X15932413Y6247486D01*
X15930061Y6245842D01*
X15927713Y6244432D01*
X15926068Y6243257D01*
X15924893Y6242787D01*
X15924425Y6242552D01*
X15922308Y6241848D01*
X15920193Y6241378D01*
X15915260Y6240438D01*
X15910092Y6239733D01*
X15904922Y6239263D01*
X15900459Y6239028D01*
X15898344D01*
X15896700Y6238793D01*
X15895290D01*
X15894115D01*
X15893410D01*
X15893175D01*
X15799194D01*
Y6323375D01*
X15893175D01*
X15898579D01*
X15903748Y6322905D01*
D02*
G37*
G36*
X15852058Y6166899D02*
X15856288Y6165959D01*
X15860046Y6164549D01*
X15863103Y6162904D01*
X15865451Y6161260D01*
X15867331Y6159850D01*
X15868271Y6158910D01*
X15868739Y6158440D01*
X15870151Y6156796D01*
X15871326Y6154681D01*
X15873204Y6150217D01*
X15874614Y6145283D01*
X15875554Y6140349D01*
X15876024Y6135885D01*
X15876259Y6134006D01*
Y6132361D01*
X15876494Y6130716D01*
Y6087016D01*
X15818462D01*
Y6133536D01*
X15818697Y6137765D01*
X15818932Y6141289D01*
X15819167Y6144108D01*
X15819637Y6145988D01*
X15819872Y6147398D01*
X15820107Y6148337D01*
Y6148572D01*
X15821281Y6151627D01*
X15822690Y6154211D01*
X15824100Y6156561D01*
X15825745Y6158675D01*
X15827390Y6160085D01*
X15828564Y6161260D01*
X15829504Y6161965D01*
X15829739Y6162200D01*
X15832558Y6163844D01*
X15835378Y6165254D01*
X15838432Y6166194D01*
X15841016Y6166664D01*
X15843365Y6167133D01*
X15845480Y6167368D01*
X15846655D01*
X15846890D01*
X15847125D01*
X15852058Y6166899D01*
D02*
G37*
D17*
X15614999Y4162500D02*
G03*
X15614999Y4162500I-12500J0D01*
G01*
D18*
X14962500Y3767500D02*
Y3812500D01*
X15097501Y3767500D02*
Y3812500D01*
X15497501Y4127500D02*
Y4172500D01*
X15362500Y4127500D02*
Y4172500D01*
X15770000Y3565000D02*
X15907500D01*
X16195000Y3692500D02*
Y4262500D01*
X15770000Y4390000D02*
X15907500D01*
X15770000Y4232500D02*
Y4390000D01*
Y3565000D02*
Y3722500D01*
D19*
X14928433Y3423825D02*
Y3576175D01*
X15004608D01*
X15030000Y3550784D01*
Y3500000D01*
X15004608Y3474608D01*
X14928433D01*
X14979216D02*
X15030000Y3423825D01*
X15080785D02*
X15131567D01*
X15106177D01*
Y3576175D01*
X15080785Y3550784D01*
X15303041Y4343825D02*
Y4496175D01*
X15379216D01*
X15404608Y4470784D01*
Y4420000D01*
X15379216Y4394608D01*
X15303041D01*
X15353825D02*
X15404608Y4343825D01*
X15556960D02*
X15455392D01*
X15556960Y4445392D01*
Y4470784D01*
X15531567Y4496175D01*
X15480785D01*
X15455392Y4470784D01*
X15960001Y4596175D02*
X15909216D01*
X15934608D01*
Y4469217D01*
X15909216Y4443825D01*
X15883826D01*
X15858434Y4469217D01*
X16010783Y4443825D02*
X16061568D01*
X16036176D01*
Y4596175D01*
X16010783Y4570784D01*
%TF.MD5,a5bd159b8ce6e8658eeaf6df17c94ec5*%
M02*
