%TF.GenerationSoftware,Altium Limited,Altium Designer,26.2.0 (7)*%
G04 Layer_Color=8388736*
%FSLAX45Y45*%
%MOMM*%
%TF.SameCoordinates,BFD0C231-D01E-4025-B592-F1B292206DE3*%
%TF.FilePolarity,Negative*%
%TF.FileFunction,Soldermask,Top*%
%TF.Part,Single*%
G01*
G75*
%TA.AperFunction,SMDPad,CuDef*%
%ADD10R,1.20000X0.90000*%
%ADD11R,2.80000X1.00000*%
%ADD12R,1.70000X0.60000*%
%TA.AperFunction,ComponentPad*%
%ADD20R,1.85320X1.85320*%
%ADD21C,1.85320*%
D10*
X15030000Y3685000D02*
D03*
Y3895000D02*
D03*
X15430000Y4255000D02*
D03*
Y4045000D02*
D03*
D11*
X16085001Y4350000D02*
D03*
Y3605000D02*
D03*
D12*
X15750000Y3790000D02*
D03*
Y3915000D02*
D03*
Y4040000D02*
D03*
Y4165000D02*
D03*
D20*
X14350000Y3534000D02*
D03*
D21*
X14603999D02*
D03*
X14350000Y3788000D02*
D03*
X14603999D02*
D03*
X14350000Y4042000D02*
D03*
X14603999D02*
D03*
X14350000Y4296000D02*
D03*
X14603999D02*
D03*
X14350000Y4550000D02*
D03*
X14603999D02*
D03*
X14350000Y4804000D02*
D03*
X14603999D02*
D03*
X14350000Y5058000D02*
D03*
X14603999D02*
D03*
X14350000Y5312000D02*
D03*
X14603999D02*
D03*
X14350000Y5566000D02*
D03*
X14603999D02*
D03*
X14350000Y5820000D02*
D03*
X14603999D02*
D03*
X14350000Y6074000D02*
D03*
X14603999D02*
D03*
X14350000Y6328000D02*
D03*
X14603999D02*
D03*
X14350000Y6582000D02*
D03*
X14603999D02*
D03*
X14350000Y6836000D02*
D03*
X14603999D02*
D03*
X14350000Y7090000D02*
D03*
X14603999D02*
D03*
X14350000Y7344000D02*
D03*
X14603999D02*
D03*
X14350000Y7598000D02*
D03*
X14603999D02*
D03*
X14350000Y7852000D02*
D03*
X14603999D02*
D03*
X14350000Y8106000D02*
D03*
X14603999D02*
D03*
X14350000Y8360000D02*
D03*
X14603999D02*
D03*
%TF.MD5,45974b9efe9272e482a4bdc107d9c7d6*%
M02*
