%TF.GenerationSoftware,Altium Limited,Altium Designer,26.2.0 (7)*%
G04 Layer_Color=16711935*
%FSLAX45Y45*%
%MOMM*%
%TF.SameCoordinates,BFD0C231-D01E-4025-B592-F1B292206DE3*%
%TF.FilePolarity,Negative*%
%TF.FileFunction,Soldermask,Bot*%
%TF.Part,Single*%
G01*
G75*
%TA.AperFunction,ComponentPad*%
%ADD20R,1.85320X1.85320*%
%ADD21C,1.85320*%
D20*
X14350000Y3534000D02*
D03*
D21*
X14603999D02*
D03*
X14350000Y3788000D02*
D03*
X14603999D02*
D03*
X14350000Y4042000D02*
D03*
X14603999D02*
D03*
X14350000Y4296000D02*
D03*
X14603999D02*
D03*
X14350000Y4550000D02*
D03*
X14603999D02*
D03*
X14350000Y4804000D02*
D03*
X14603999D02*
D03*
X14350000Y5058000D02*
D03*
X14603999D02*
D03*
X14350000Y5312000D02*
D03*
X14603999D02*
D03*
X14350000Y5566000D02*
D03*
X14603999D02*
D03*
X14350000Y5820000D02*
D03*
X14603999D02*
D03*
X14350000Y6074000D02*
D03*
X14603999D02*
D03*
X14350000Y6328000D02*
D03*
X14603999D02*
D03*
X14350000Y6582000D02*
D03*
X14603999D02*
D03*
X14350000Y6836000D02*
D03*
X14603999D02*
D03*
X14350000Y7090000D02*
D03*
X14603999D02*
D03*
X14350000Y7344000D02*
D03*
X14603999D02*
D03*
X14350000Y7598000D02*
D03*
X14603999D02*
D03*
X14350000Y7852000D02*
D03*
X14603999D02*
D03*
X14350000Y8106000D02*
D03*
X14603999D02*
D03*
X14350000Y8360000D02*
D03*
X14603999D02*
D03*
%TF.MD5,ebe0d526abbffb8a712eaf1f3b399edb*%
M02*
