%TF.GenerationSoftware,Altium Limited,Altium Designer,26.2.0 (7)*%
G04 Layer_Physical_Order=2*
G04 Layer_Color=16711680*
%FSLAX45Y45*%
%MOMM*%
%TF.SameCoordinates,BFD0C231-D01E-4025-B592-F1B292206DE3*%
%TF.FilePolarity,Positive*%
%TF.FileFunction,Copper,L2,Bot,Signal*%
%TF.Part,Single*%
G01*
G75*
%TA.AperFunction,Conductor*%
%ADD13C,0.25400*%
%TA.AperFunction,ComponentPad*%
%ADD14R,1.65000X1.65000*%
%ADD15C,1.65000*%
%TA.AperFunction,TestPad*%
%ADD16C,0.60960*%
G36*
X16186252Y8596541D02*
X16202631Y8589757D01*
X16217371Y8579907D01*
X16229907Y8567371D01*
X16239757Y8552631D01*
X16246541Y8536252D01*
X16250000Y8518864D01*
Y8510000D01*
Y3420000D01*
Y3412121D01*
X16246925Y3396665D01*
X16240895Y3382106D01*
X16232140Y3369003D01*
X16220998Y3357860D01*
X16207893Y3349105D01*
X16193335Y3343074D01*
X16177879Y3340000D01*
X14090150D01*
X14070831Y3343843D01*
X14052632Y3351381D01*
X14036253Y3362325D01*
X14022325Y3376254D01*
X14011382Y3392632D01*
X14003844Y3410831D01*
X14000000Y3430151D01*
Y3440000D01*
Y8500000D01*
Y8509849D01*
X14003844Y8529169D01*
X14011382Y8547368D01*
X14022325Y8563746D01*
X14036253Y8577675D01*
X14052632Y8588619D01*
X14070831Y8596157D01*
X14090150Y8600000D01*
X16168864D01*
X16186252Y8596541D01*
D02*
G37*
%LPC*%
G36*
X14618205Y8467900D02*
X14589795D01*
X14562352Y8460547D01*
X14537749Y8446342D01*
X14517659Y8426252D01*
X14503453Y8401648D01*
X14496100Y8374205D01*
Y8345795D01*
X14503453Y8318352D01*
X14517659Y8293748D01*
X14537749Y8273659D01*
X14562352Y8259453D01*
X14589795Y8252100D01*
X14618205D01*
X14645648Y8259453D01*
X14670251Y8273659D01*
X14690341Y8293748D01*
X14704547Y8318352D01*
X14711900Y8345795D01*
Y8374205D01*
X14704547Y8401648D01*
X14690341Y8426252D01*
X14670251Y8446342D01*
X14645648Y8460547D01*
X14618205Y8467900D01*
D02*
G37*
G36*
X14364204D02*
X14335796D01*
X14308353Y8460547D01*
X14283748Y8446342D01*
X14263660Y8426252D01*
X14249454Y8401648D01*
X14242101Y8374205D01*
Y8345795D01*
X14249454Y8318352D01*
X14263660Y8293748D01*
X14283748Y8273659D01*
X14308353Y8259453D01*
X14335796Y8252100D01*
X14364204D01*
X14391647Y8259453D01*
X14416252Y8273659D01*
X14436340Y8293748D01*
X14450546Y8318352D01*
X14457899Y8345795D01*
Y8374205D01*
X14450546Y8401648D01*
X14436340Y8426252D01*
X14416252Y8446342D01*
X14391647Y8460547D01*
X14364204Y8467900D01*
D02*
G37*
G36*
X14618205Y8213900D02*
X14589795D01*
X14562352Y8206547D01*
X14537749Y8192342D01*
X14517659Y8172252D01*
X14503453Y8147648D01*
X14496100Y8120205D01*
Y8091795D01*
X14503453Y8064352D01*
X14517659Y8039748D01*
X14537749Y8019659D01*
X14562352Y8005453D01*
X14589795Y7998100D01*
X14618205D01*
X14645648Y8005453D01*
X14670251Y8019659D01*
X14690341Y8039748D01*
X14704547Y8064352D01*
X14711900Y8091795D01*
Y8120205D01*
X14704547Y8147648D01*
X14690341Y8172252D01*
X14670251Y8192342D01*
X14645648Y8206547D01*
X14618205Y8213900D01*
D02*
G37*
G36*
X14364204D02*
X14335796D01*
X14308353Y8206547D01*
X14283748Y8192342D01*
X14263660Y8172252D01*
X14249454Y8147648D01*
X14242101Y8120205D01*
Y8091795D01*
X14249454Y8064352D01*
X14263660Y8039748D01*
X14283748Y8019659D01*
X14308353Y8005453D01*
X14335796Y7998100D01*
X14364204D01*
X14391647Y8005453D01*
X14416252Y8019659D01*
X14436340Y8039748D01*
X14450546Y8064352D01*
X14457899Y8091795D01*
Y8120205D01*
X14450546Y8147648D01*
X14436340Y8172252D01*
X14416252Y8192342D01*
X14391647Y8206547D01*
X14364204Y8213900D01*
D02*
G37*
G36*
X14618205Y7959900D02*
X14589795D01*
X14562352Y7952547D01*
X14537749Y7938342D01*
X14517659Y7918252D01*
X14503453Y7893648D01*
X14496100Y7866205D01*
Y7837795D01*
X14503453Y7810352D01*
X14517659Y7785748D01*
X14537749Y7765659D01*
X14562352Y7751453D01*
X14589795Y7744100D01*
X14618205D01*
X14645648Y7751453D01*
X14670251Y7765659D01*
X14690341Y7785748D01*
X14704547Y7810352D01*
X14711900Y7837795D01*
Y7866205D01*
X14704547Y7893648D01*
X14690341Y7918252D01*
X14670251Y7938342D01*
X14645648Y7952547D01*
X14618205Y7959900D01*
D02*
G37*
G36*
X14364204D02*
X14335796D01*
X14308353Y7952547D01*
X14283748Y7938342D01*
X14263660Y7918252D01*
X14249454Y7893648D01*
X14242101Y7866205D01*
Y7837795D01*
X14249454Y7810352D01*
X14263660Y7785748D01*
X14283748Y7765659D01*
X14308353Y7751453D01*
X14335796Y7744100D01*
X14364204D01*
X14391647Y7751453D01*
X14416252Y7765659D01*
X14436340Y7785748D01*
X14450546Y7810352D01*
X14457899Y7837795D01*
Y7866205D01*
X14450546Y7893648D01*
X14436340Y7918252D01*
X14416252Y7938342D01*
X14391647Y7952547D01*
X14364204Y7959900D01*
D02*
G37*
G36*
X14618205Y7705900D02*
X14589795D01*
X14562352Y7698547D01*
X14537749Y7684342D01*
X14517659Y7664252D01*
X14503453Y7639648D01*
X14496100Y7612205D01*
Y7583795D01*
X14503453Y7556352D01*
X14517659Y7531748D01*
X14537749Y7511659D01*
X14562352Y7497453D01*
X14589795Y7490100D01*
X14618205D01*
X14645648Y7497453D01*
X14670251Y7511659D01*
X14690341Y7531748D01*
X14704547Y7556352D01*
X14711900Y7583795D01*
Y7612205D01*
X14704547Y7639648D01*
X14690341Y7664252D01*
X14670251Y7684342D01*
X14645648Y7698547D01*
X14618205Y7705900D01*
D02*
G37*
G36*
X14364204D02*
X14335796D01*
X14308353Y7698547D01*
X14283748Y7684342D01*
X14263660Y7664252D01*
X14249454Y7639648D01*
X14242101Y7612205D01*
Y7583795D01*
X14249454Y7556352D01*
X14263660Y7531748D01*
X14283748Y7511659D01*
X14308353Y7497453D01*
X14335796Y7490100D01*
X14364204D01*
X14391647Y7497453D01*
X14416252Y7511659D01*
X14436340Y7531748D01*
X14450546Y7556352D01*
X14457899Y7583795D01*
Y7612205D01*
X14450546Y7639648D01*
X14436340Y7664252D01*
X14416252Y7684342D01*
X14391647Y7698547D01*
X14364204Y7705900D01*
D02*
G37*
G36*
X14618205Y7451900D02*
X14589795D01*
X14562352Y7444547D01*
X14537749Y7430342D01*
X14517659Y7410252D01*
X14503453Y7385648D01*
X14496100Y7358205D01*
Y7329795D01*
X14503453Y7302352D01*
X14517659Y7277748D01*
X14537749Y7257659D01*
X14562352Y7243453D01*
X14589795Y7236100D01*
X14618205D01*
X14645648Y7243453D01*
X14670251Y7257659D01*
X14690341Y7277748D01*
X14704547Y7302352D01*
X14711900Y7329795D01*
Y7358205D01*
X14704547Y7385648D01*
X14690341Y7410252D01*
X14670251Y7430342D01*
X14645648Y7444547D01*
X14618205Y7451900D01*
D02*
G37*
G36*
X14364204D02*
X14335796D01*
X14308353Y7444547D01*
X14283748Y7430342D01*
X14263660Y7410252D01*
X14249454Y7385648D01*
X14242101Y7358205D01*
Y7329795D01*
X14249454Y7302352D01*
X14263660Y7277748D01*
X14283748Y7257659D01*
X14308353Y7243453D01*
X14335796Y7236100D01*
X14364204D01*
X14391647Y7243453D01*
X14416252Y7257659D01*
X14436340Y7277748D01*
X14450546Y7302352D01*
X14457899Y7329795D01*
Y7358205D01*
X14450546Y7385648D01*
X14436340Y7410252D01*
X14416252Y7430342D01*
X14391647Y7444547D01*
X14364204Y7451900D01*
D02*
G37*
G36*
X14618205Y7197900D02*
X14589795D01*
X14562352Y7190547D01*
X14537749Y7176342D01*
X14517659Y7156252D01*
X14503453Y7131648D01*
X14496100Y7104205D01*
Y7075795D01*
X14503453Y7048352D01*
X14517659Y7023748D01*
X14537749Y7003659D01*
X14562352Y6989453D01*
X14589795Y6982100D01*
X14618205D01*
X14645648Y6989453D01*
X14670251Y7003659D01*
X14690341Y7023748D01*
X14704547Y7048352D01*
X14711900Y7075795D01*
Y7104205D01*
X14704547Y7131648D01*
X14690341Y7156252D01*
X14670251Y7176342D01*
X14645648Y7190547D01*
X14618205Y7197900D01*
D02*
G37*
G36*
X14364204D02*
X14335796D01*
X14308353Y7190547D01*
X14283748Y7176342D01*
X14263660Y7156252D01*
X14249454Y7131648D01*
X14242101Y7104205D01*
Y7075795D01*
X14249454Y7048352D01*
X14263660Y7023748D01*
X14283748Y7003659D01*
X14308353Y6989453D01*
X14335796Y6982100D01*
X14364204D01*
X14391647Y6989453D01*
X14416252Y7003659D01*
X14436340Y7023748D01*
X14450546Y7048352D01*
X14457899Y7075795D01*
Y7104205D01*
X14450546Y7131648D01*
X14436340Y7156252D01*
X14416252Y7176342D01*
X14391647Y7190547D01*
X14364204Y7197900D01*
D02*
G37*
G36*
X14618205Y6943900D02*
X14589795D01*
X14562352Y6936547D01*
X14537749Y6922342D01*
X14517659Y6902252D01*
X14503453Y6877648D01*
X14496100Y6850205D01*
Y6821795D01*
X14503453Y6794352D01*
X14517659Y6769748D01*
X14537749Y6749659D01*
X14562352Y6735453D01*
X14589795Y6728100D01*
X14618205D01*
X14645648Y6735453D01*
X14670251Y6749659D01*
X14690341Y6769748D01*
X14704547Y6794352D01*
X14711900Y6821795D01*
Y6850205D01*
X14704547Y6877648D01*
X14690341Y6902252D01*
X14670251Y6922342D01*
X14645648Y6936547D01*
X14618205Y6943900D01*
D02*
G37*
G36*
X14364204D02*
X14335796D01*
X14308353Y6936547D01*
X14283748Y6922342D01*
X14263660Y6902252D01*
X14249454Y6877648D01*
X14242101Y6850205D01*
Y6821795D01*
X14249454Y6794352D01*
X14263660Y6769748D01*
X14283748Y6749659D01*
X14308353Y6735453D01*
X14335796Y6728100D01*
X14364204D01*
X14391647Y6735453D01*
X14416252Y6749659D01*
X14436340Y6769748D01*
X14450546Y6794352D01*
X14457899Y6821795D01*
Y6850205D01*
X14450546Y6877648D01*
X14436340Y6902252D01*
X14416252Y6922342D01*
X14391647Y6936547D01*
X14364204Y6943900D01*
D02*
G37*
G36*
X14618205Y6689900D02*
X14589795D01*
X14562352Y6682547D01*
X14537749Y6668342D01*
X14517659Y6648252D01*
X14503453Y6623648D01*
X14496100Y6596205D01*
Y6567795D01*
X14503453Y6540352D01*
X14517659Y6515748D01*
X14537749Y6495659D01*
X14562352Y6481453D01*
X14589795Y6474100D01*
X14618205D01*
X14645648Y6481453D01*
X14670251Y6495659D01*
X14690341Y6515748D01*
X14704547Y6540352D01*
X14711900Y6567795D01*
Y6596205D01*
X14704547Y6623648D01*
X14690341Y6648252D01*
X14670251Y6668342D01*
X14645648Y6682547D01*
X14618205Y6689900D01*
D02*
G37*
G36*
X14364204D02*
X14335796D01*
X14308353Y6682547D01*
X14283748Y6668342D01*
X14263660Y6648252D01*
X14249454Y6623648D01*
X14242101Y6596205D01*
Y6567795D01*
X14249454Y6540352D01*
X14263660Y6515748D01*
X14283748Y6495659D01*
X14308353Y6481453D01*
X14335796Y6474100D01*
X14364204D01*
X14391647Y6481453D01*
X14416252Y6495659D01*
X14436340Y6515748D01*
X14450546Y6540352D01*
X14457899Y6567795D01*
Y6596205D01*
X14450546Y6623648D01*
X14436340Y6648252D01*
X14416252Y6668342D01*
X14391647Y6682547D01*
X14364204Y6689900D01*
D02*
G37*
G36*
X14618205Y6435900D02*
X14589795D01*
X14562352Y6428547D01*
X14537749Y6414342D01*
X14517659Y6394252D01*
X14503453Y6369648D01*
X14496100Y6342205D01*
Y6313795D01*
X14503453Y6286352D01*
X14517659Y6261748D01*
X14537749Y6241659D01*
X14562352Y6227453D01*
X14589795Y6220100D01*
X14618205D01*
X14645648Y6227453D01*
X14670251Y6241659D01*
X14690341Y6261748D01*
X14704547Y6286352D01*
X14711900Y6313795D01*
Y6342205D01*
X14704547Y6369648D01*
X14690341Y6394252D01*
X14670251Y6414342D01*
X14645648Y6428547D01*
X14618205Y6435900D01*
D02*
G37*
G36*
X14364204D02*
X14335796D01*
X14308353Y6428547D01*
X14283748Y6414342D01*
X14263660Y6394252D01*
X14249454Y6369648D01*
X14242101Y6342205D01*
Y6313795D01*
X14249454Y6286352D01*
X14263660Y6261748D01*
X14283748Y6241659D01*
X14308353Y6227453D01*
X14335796Y6220100D01*
X14364204D01*
X14391647Y6227453D01*
X14416252Y6241659D01*
X14436340Y6261748D01*
X14450546Y6286352D01*
X14457899Y6313795D01*
Y6342205D01*
X14450546Y6369648D01*
X14436340Y6394252D01*
X14416252Y6414342D01*
X14391647Y6428547D01*
X14364204Y6435900D01*
D02*
G37*
G36*
X14618205Y6181900D02*
X14589795D01*
X14562352Y6174547D01*
X14537749Y6160342D01*
X14517659Y6140252D01*
X14503453Y6115648D01*
X14496100Y6088205D01*
Y6059795D01*
X14503453Y6032352D01*
X14517659Y6007748D01*
X14537749Y5987659D01*
X14562352Y5973453D01*
X14589795Y5966100D01*
X14618205D01*
X14645648Y5973453D01*
X14670251Y5987659D01*
X14690341Y6007748D01*
X14704547Y6032352D01*
X14711900Y6059795D01*
Y6088205D01*
X14704547Y6115648D01*
X14690341Y6140252D01*
X14670251Y6160342D01*
X14645648Y6174547D01*
X14618205Y6181900D01*
D02*
G37*
G36*
X14364204D02*
X14335796D01*
X14308353Y6174547D01*
X14283748Y6160342D01*
X14263660Y6140252D01*
X14249454Y6115648D01*
X14242101Y6088205D01*
Y6059795D01*
X14249454Y6032352D01*
X14263660Y6007748D01*
X14283748Y5987659D01*
X14308353Y5973453D01*
X14335796Y5966100D01*
X14364204D01*
X14391647Y5973453D01*
X14416252Y5987659D01*
X14436340Y6007748D01*
X14450546Y6032352D01*
X14457899Y6059795D01*
Y6088205D01*
X14450546Y6115648D01*
X14436340Y6140252D01*
X14416252Y6160342D01*
X14391647Y6174547D01*
X14364204Y6181900D01*
D02*
G37*
G36*
X14618205Y5927900D02*
X14589795D01*
X14562352Y5920547D01*
X14537749Y5906342D01*
X14517659Y5886252D01*
X14503453Y5861648D01*
X14496100Y5834205D01*
Y5805795D01*
X14503453Y5778352D01*
X14517659Y5753748D01*
X14537749Y5733659D01*
X14562352Y5719453D01*
X14589795Y5712100D01*
X14618205D01*
X14645648Y5719453D01*
X14670251Y5733659D01*
X14690341Y5753748D01*
X14704547Y5778352D01*
X14711900Y5805795D01*
Y5834205D01*
X14704547Y5861648D01*
X14690341Y5886252D01*
X14670251Y5906342D01*
X14645648Y5920547D01*
X14618205Y5927900D01*
D02*
G37*
G36*
X14364204D02*
X14335796D01*
X14308353Y5920547D01*
X14283748Y5906342D01*
X14263660Y5886252D01*
X14249454Y5861648D01*
X14242101Y5834205D01*
Y5805795D01*
X14249454Y5778352D01*
X14263660Y5753748D01*
X14283748Y5733659D01*
X14308353Y5719453D01*
X14335796Y5712100D01*
X14364204D01*
X14391647Y5719453D01*
X14416252Y5733659D01*
X14436340Y5753748D01*
X14450546Y5778352D01*
X14457899Y5805795D01*
Y5834205D01*
X14450546Y5861648D01*
X14436340Y5886252D01*
X14416252Y5906342D01*
X14391647Y5920547D01*
X14364204Y5927900D01*
D02*
G37*
G36*
X14618205Y5673900D02*
X14589795D01*
X14562352Y5666547D01*
X14537749Y5652342D01*
X14517659Y5632252D01*
X14503453Y5607648D01*
X14496100Y5580205D01*
Y5551795D01*
X14503453Y5524352D01*
X14517659Y5499748D01*
X14537749Y5479659D01*
X14562352Y5465453D01*
X14589795Y5458100D01*
X14618205D01*
X14645648Y5465453D01*
X14670251Y5479659D01*
X14690341Y5499748D01*
X14704547Y5524352D01*
X14711900Y5551795D01*
Y5580205D01*
X14704547Y5607648D01*
X14690341Y5632252D01*
X14670251Y5652342D01*
X14645648Y5666547D01*
X14618205Y5673900D01*
D02*
G37*
G36*
X14364204D02*
X14335796D01*
X14308353Y5666547D01*
X14283748Y5652342D01*
X14263660Y5632252D01*
X14249454Y5607648D01*
X14242101Y5580205D01*
Y5551795D01*
X14249454Y5524352D01*
X14263660Y5499748D01*
X14283748Y5479659D01*
X14308353Y5465453D01*
X14335796Y5458100D01*
X14364204D01*
X14391647Y5465453D01*
X14416252Y5479659D01*
X14436340Y5499748D01*
X14450546Y5524352D01*
X14457899Y5551795D01*
Y5580205D01*
X14450546Y5607648D01*
X14436340Y5632252D01*
X14416252Y5652342D01*
X14391647Y5666547D01*
X14364204Y5673900D01*
D02*
G37*
G36*
X14618205Y5419900D02*
X14589795D01*
X14562352Y5412547D01*
X14537749Y5398342D01*
X14517659Y5378252D01*
X14503453Y5353648D01*
X14496100Y5326205D01*
Y5297795D01*
X14503453Y5270352D01*
X14517659Y5245748D01*
X14537749Y5225659D01*
X14562352Y5211453D01*
X14589795Y5204100D01*
X14618205D01*
X14645648Y5211453D01*
X14670251Y5225659D01*
X14690341Y5245748D01*
X14704547Y5270352D01*
X14711900Y5297795D01*
Y5326205D01*
X14704547Y5353648D01*
X14690341Y5378252D01*
X14670251Y5398342D01*
X14645648Y5412547D01*
X14618205Y5419900D01*
D02*
G37*
G36*
X14364204D02*
X14335796D01*
X14308353Y5412547D01*
X14283748Y5398342D01*
X14263660Y5378252D01*
X14249454Y5353648D01*
X14242101Y5326205D01*
Y5297795D01*
X14249454Y5270352D01*
X14263660Y5245748D01*
X14283748Y5225659D01*
X14308353Y5211453D01*
X14335796Y5204100D01*
X14364204D01*
X14391647Y5211453D01*
X14416252Y5225659D01*
X14436340Y5245748D01*
X14450546Y5270352D01*
X14457899Y5297795D01*
Y5326205D01*
X14450546Y5353648D01*
X14436340Y5378252D01*
X14416252Y5398342D01*
X14391647Y5412547D01*
X14364204Y5419900D01*
D02*
G37*
G36*
X14618205Y5165900D02*
X14589795D01*
X14562352Y5158547D01*
X14537749Y5144342D01*
X14517659Y5124252D01*
X14503453Y5099648D01*
X14496100Y5072205D01*
Y5043795D01*
X14503453Y5016352D01*
X14517659Y4991748D01*
X14537749Y4971659D01*
X14562352Y4957453D01*
X14589795Y4950100D01*
X14618205D01*
X14645648Y4957453D01*
X14670251Y4971659D01*
X14690341Y4991748D01*
X14704547Y5016352D01*
X14711900Y5043795D01*
Y5072205D01*
X14704547Y5099648D01*
X14690341Y5124252D01*
X14670251Y5144342D01*
X14645648Y5158547D01*
X14618205Y5165900D01*
D02*
G37*
G36*
X14364204D02*
X14335796D01*
X14308353Y5158547D01*
X14283748Y5144342D01*
X14263660Y5124252D01*
X14249454Y5099648D01*
X14242101Y5072205D01*
Y5043795D01*
X14249454Y5016352D01*
X14263660Y4991748D01*
X14283748Y4971659D01*
X14308353Y4957453D01*
X14335796Y4950100D01*
X14364204D01*
X14391647Y4957453D01*
X14416252Y4971659D01*
X14436340Y4991748D01*
X14450546Y5016352D01*
X14457899Y5043795D01*
Y5072205D01*
X14450546Y5099648D01*
X14436340Y5124252D01*
X14416252Y5144342D01*
X14391647Y5158547D01*
X14364204Y5165900D01*
D02*
G37*
G36*
X14618205Y4911900D02*
X14589795D01*
X14562352Y4904547D01*
X14537749Y4890342D01*
X14517659Y4870252D01*
X14503453Y4845648D01*
X14496100Y4818205D01*
Y4789795D01*
X14503453Y4762352D01*
X14517659Y4737748D01*
X14537749Y4717659D01*
X14562352Y4703453D01*
X14589795Y4696100D01*
X14618205D01*
X14645648Y4703453D01*
X14670251Y4717659D01*
X14690341Y4737748D01*
X14704547Y4762352D01*
X14711900Y4789795D01*
Y4818205D01*
X14704547Y4845648D01*
X14690341Y4870252D01*
X14670251Y4890342D01*
X14645648Y4904547D01*
X14618205Y4911900D01*
D02*
G37*
G36*
X14364204D02*
X14335796D01*
X14308353Y4904547D01*
X14283748Y4890342D01*
X14263660Y4870252D01*
X14249454Y4845648D01*
X14242101Y4818205D01*
Y4789795D01*
X14249454Y4762352D01*
X14263660Y4737748D01*
X14283748Y4717659D01*
X14308353Y4703453D01*
X14335796Y4696100D01*
X14364204D01*
X14391647Y4703453D01*
X14416252Y4717659D01*
X14436340Y4737748D01*
X14450546Y4762352D01*
X14457899Y4789795D01*
Y4818205D01*
X14450546Y4845648D01*
X14436340Y4870252D01*
X14416252Y4890342D01*
X14391647Y4904547D01*
X14364204Y4911900D01*
D02*
G37*
G36*
X14618205Y4657900D02*
X14589795D01*
X14562352Y4650547D01*
X14537749Y4636342D01*
X14517659Y4616252D01*
X14503453Y4591648D01*
X14496100Y4564205D01*
Y4535795D01*
X14503453Y4508352D01*
X14517659Y4483748D01*
X14537749Y4463659D01*
X14562352Y4449453D01*
X14589795Y4442100D01*
X14618205D01*
X14645648Y4449453D01*
X14670251Y4463659D01*
X14690341Y4483748D01*
X14704547Y4508352D01*
X14711900Y4535795D01*
Y4564205D01*
X14704547Y4591648D01*
X14690341Y4616252D01*
X14670251Y4636342D01*
X14645648Y4650547D01*
X14618205Y4657900D01*
D02*
G37*
G36*
X14364204D02*
X14335796D01*
X14308353Y4650547D01*
X14283748Y4636342D01*
X14263660Y4616252D01*
X14249454Y4591648D01*
X14242101Y4564205D01*
Y4535795D01*
X14249454Y4508352D01*
X14263660Y4483748D01*
X14283748Y4463659D01*
X14308353Y4449453D01*
X14335796Y4442100D01*
X14364204D01*
X14391647Y4449453D01*
X14416252Y4463659D01*
X14436340Y4483748D01*
X14450546Y4508352D01*
X14457899Y4535795D01*
Y4564205D01*
X14450546Y4591648D01*
X14436340Y4616252D01*
X14416252Y4636342D01*
X14391647Y4650547D01*
X14364204Y4657900D01*
D02*
G37*
G36*
X14618205Y4403900D02*
X14589795D01*
X14562352Y4396547D01*
X14537749Y4382342D01*
X14517659Y4362252D01*
X14503453Y4337648D01*
X14496100Y4310205D01*
Y4281795D01*
X14503453Y4254352D01*
X14517659Y4229748D01*
X14537749Y4209659D01*
X14562352Y4195453D01*
X14589795Y4188100D01*
X14618205D01*
X14645648Y4195453D01*
X14670251Y4209659D01*
X14690341Y4229748D01*
X14704547Y4254352D01*
X14711900Y4281795D01*
Y4310205D01*
X14704547Y4337648D01*
X14690341Y4362252D01*
X14670251Y4382342D01*
X14645648Y4396547D01*
X14618205Y4403900D01*
D02*
G37*
G36*
X14364204D02*
X14335796D01*
X14308353Y4396547D01*
X14283748Y4382342D01*
X14263660Y4362252D01*
X14249454Y4337648D01*
X14242101Y4310205D01*
Y4281795D01*
X14249454Y4254352D01*
X14263660Y4229748D01*
X14283748Y4209659D01*
X14308353Y4195453D01*
X14335796Y4188100D01*
X14364204D01*
X14391647Y4195453D01*
X14416252Y4209659D01*
X14436340Y4229748D01*
X14450546Y4254352D01*
X14457899Y4281795D01*
Y4310205D01*
X14450546Y4337648D01*
X14436340Y4362252D01*
X14416252Y4382342D01*
X14391647Y4396547D01*
X14364204Y4403900D01*
D02*
G37*
G36*
X14114700Y4097224D02*
Y4054700D01*
X14157224D01*
X14149373Y4073654D01*
X14133653Y4089373D01*
X14114700Y4097224D01*
D02*
G37*
G36*
X14089301D02*
X14070348Y4089373D01*
X14054626Y4073654D01*
X14046776Y4054700D01*
X14089301D01*
Y4097224D01*
D02*
G37*
G36*
X14364204Y4149900D02*
X14362700D01*
Y4054700D01*
X14457899D01*
Y4056205D01*
X14450546Y4083648D01*
X14436340Y4108252D01*
X14416252Y4128342D01*
X14391647Y4142547D01*
X14364204Y4149900D01*
D02*
G37*
G36*
X14337300D02*
X14335796D01*
X14308353Y4142547D01*
X14283748Y4128342D01*
X14263660Y4108252D01*
X14249454Y4083648D01*
X14242101Y4056205D01*
Y4054700D01*
X14337300D01*
Y4149900D01*
D02*
G37*
G36*
X14157224Y4029300D02*
X14114700D01*
Y3986776D01*
X14133653Y3994627D01*
X14149373Y4010347D01*
X14157224Y4029300D01*
D02*
G37*
G36*
X14089301D02*
X14046776D01*
X14054626Y4010347D01*
X14070348Y3994627D01*
X14089301Y3986776D01*
Y4029300D01*
D02*
G37*
G36*
X14618205Y4149900D02*
X14589795D01*
X14562352Y4142547D01*
X14537749Y4128342D01*
X14517659Y4108252D01*
X14503453Y4083648D01*
X14496100Y4056205D01*
Y4027795D01*
X14503453Y4000352D01*
X14517659Y3975748D01*
X14537749Y3955659D01*
X14562352Y3941453D01*
X14589795Y3934100D01*
X14618205D01*
X14645648Y3941453D01*
X14670251Y3955659D01*
X14690341Y3975748D01*
X14704547Y4000352D01*
X14711900Y4027795D01*
Y4056205D01*
X14704547Y4083648D01*
X14690341Y4108252D01*
X14670251Y4128342D01*
X14645648Y4142547D01*
X14618205Y4149900D01*
D02*
G37*
G36*
X14457899Y4029300D02*
X14362700D01*
Y3934100D01*
X14364204D01*
X14391647Y3941453D01*
X14416252Y3955659D01*
X14436340Y3975748D01*
X14450546Y4000352D01*
X14457899Y4027795D01*
Y4029300D01*
D02*
G37*
G36*
X14337300D02*
X14242101D01*
Y4027795D01*
X14249454Y4000352D01*
X14263660Y3975748D01*
X14283748Y3955659D01*
X14308353Y3941453D01*
X14335796Y3934100D01*
X14337300D01*
Y4029300D01*
D02*
G37*
G36*
X15542700Y3845224D02*
Y3802700D01*
X15585223D01*
X15577373Y3821654D01*
X15561653Y3837373D01*
X15542700Y3845224D01*
D02*
G37*
G36*
X15517300D02*
X15498346Y3837373D01*
X15482626Y3821654D01*
X15474776Y3802700D01*
X15517300D01*
Y3845224D01*
D02*
G37*
G36*
X15585223Y3777300D02*
X15542700D01*
Y3734776D01*
X15561653Y3742627D01*
X15577373Y3758347D01*
X15585223Y3777300D01*
D02*
G37*
G36*
X15517300D02*
X15474776D01*
X15482626Y3758347D01*
X15498346Y3742627D01*
X15517300Y3734776D01*
Y3777300D01*
D02*
G37*
G36*
X14618205Y3895900D02*
X14589795D01*
X14562352Y3888547D01*
X14537749Y3874342D01*
X14517659Y3854252D01*
X14503453Y3829648D01*
X14496100Y3802205D01*
Y3773795D01*
X14503453Y3746352D01*
X14517659Y3721748D01*
X14537749Y3701659D01*
X14562352Y3687453D01*
X14589795Y3680100D01*
X14618205D01*
X14645648Y3687453D01*
X14670251Y3701659D01*
X14690341Y3721748D01*
X14704547Y3746352D01*
X14711900Y3773795D01*
Y3802205D01*
X14704547Y3829648D01*
X14690341Y3854252D01*
X14670251Y3874342D01*
X14645648Y3888547D01*
X14618205Y3895900D01*
D02*
G37*
G36*
X14364204D02*
X14335796D01*
X14308353Y3888547D01*
X14283748Y3874342D01*
X14263660Y3854252D01*
X14249454Y3829648D01*
X14242101Y3802205D01*
Y3773795D01*
X14249454Y3746352D01*
X14263660Y3721748D01*
X14283748Y3701659D01*
X14308353Y3687453D01*
X14335796Y3680100D01*
X14364204D01*
X14391647Y3687453D01*
X14416252Y3701659D01*
X14436340Y3721748D01*
X14450546Y3746352D01*
X14457899Y3773795D01*
Y3802205D01*
X14450546Y3829648D01*
X14436340Y3854252D01*
X14416252Y3874342D01*
X14391647Y3888547D01*
X14364204Y3895900D01*
D02*
G37*
G36*
X15256116Y4310880D02*
X15233885D01*
X15213347Y4302373D01*
X15197627Y4286654D01*
X15189120Y4266115D01*
Y4243885D01*
X15197627Y4223347D01*
X15206154Y4214820D01*
Y3733536D01*
X15203346Y3732373D01*
X15187627Y3716653D01*
X15179120Y3696115D01*
Y3673885D01*
X15187627Y3653347D01*
X15203346Y3637627D01*
X15223885Y3629120D01*
X15246115D01*
X15266653Y3637627D01*
X15282373Y3653347D01*
X15290880Y3673885D01*
Y3696115D01*
X15283847Y3713095D01*
Y4214820D01*
X15292374Y4223347D01*
X15300880Y4243885D01*
Y4266115D01*
X15292374Y4286654D01*
X15276654Y4302373D01*
X15256116Y4310880D01*
D02*
G37*
G36*
X14618205Y3641900D02*
X14589795D01*
X14562352Y3634547D01*
X14537749Y3620342D01*
X14517659Y3600252D01*
X14503453Y3575648D01*
X14496100Y3548205D01*
Y3519795D01*
X14503453Y3492352D01*
X14517659Y3467748D01*
X14537749Y3447659D01*
X14562352Y3433453D01*
X14589795Y3426100D01*
X14618205D01*
X14645648Y3433453D01*
X14670251Y3447659D01*
X14690341Y3467748D01*
X14704547Y3492352D01*
X14711900Y3519795D01*
Y3548205D01*
X14704547Y3575648D01*
X14690341Y3600252D01*
X14670251Y3620342D01*
X14645648Y3634547D01*
X14618205Y3641900D01*
D02*
G37*
G36*
X14457899D02*
X14242101D01*
Y3426100D01*
X14457899D01*
Y3641900D01*
D02*
G37*
%LPD*%
D13*
X15235001Y3685000D02*
G03*
X15245000Y3695000I0J10000D01*
G01*
Y4255000D01*
D14*
X14350000Y3534000D02*
D03*
D15*
X14603999D02*
D03*
X14350000Y3788000D02*
D03*
X14603999D02*
D03*
X14350000Y4042000D02*
D03*
X14603999D02*
D03*
X14350000Y4296000D02*
D03*
X14603999D02*
D03*
X14350000Y4550000D02*
D03*
X14603999D02*
D03*
X14350000Y4804000D02*
D03*
X14603999D02*
D03*
X14350000Y5058000D02*
D03*
X14603999D02*
D03*
X14350000Y5312000D02*
D03*
X14603999D02*
D03*
X14350000Y5566000D02*
D03*
X14603999D02*
D03*
X14350000Y5820000D02*
D03*
X14603999D02*
D03*
X14350000Y6074000D02*
D03*
X14603999D02*
D03*
X14350000Y6328000D02*
D03*
X14603999D02*
D03*
X14350000Y6582000D02*
D03*
X14603999D02*
D03*
X14350000Y6836000D02*
D03*
X14603999D02*
D03*
X14350000Y7090000D02*
D03*
X14603999D02*
D03*
X14350000Y7344000D02*
D03*
X14603999D02*
D03*
X14350000Y7598000D02*
D03*
X14603999D02*
D03*
X14350000Y7852000D02*
D03*
X14603999D02*
D03*
X14350000Y8106000D02*
D03*
X14603999D02*
D03*
X14350000Y8360000D02*
D03*
X14603999D02*
D03*
D16*
X15245000Y4255000D02*
D03*
X15235001Y3685000D02*
D03*
X14102000Y4042000D02*
D03*
X15530000Y3790000D02*
D03*
%TF.MD5,f1a342fbb114d831ceafe038b1280bf8*%
M02*
