%TF.GenerationSoftware,Altium Limited,Altium Designer,26.2.0 (7)*%
G04 Layer_Physical_Order=1*
G04 Layer_Color=255*
%FSLAX45Y45*%
%MOMM*%
%TF.SameCoordinates,BFD0C231-D01E-4025-B592-F1B292206DE3*%
%TF.FilePolarity,Positive*%
%TF.FileFunction,Copper,L1,Top,Signal*%
%TF.Part,Single*%
G01*
G75*
%TA.AperFunction,SMDPad,CuDef*%
%ADD10R,1.20000X0.90000*%
%ADD11R,2.80000X1.00000*%
%ADD12R,1.70000X0.60000*%
%TA.AperFunction,Conductor*%
%ADD13C,0.25400*%
%TA.AperFunction,ComponentPad*%
%ADD14R,1.65000X1.65000*%
%ADD15C,1.65000*%
%TA.AperFunction,TestPad*%
%ADD16C,0.60960*%
D10*
X15030000Y3685000D02*
D03*
Y3895000D02*
D03*
X15430000Y4255000D02*
D03*
Y4045000D02*
D03*
D11*
X16085001Y4350000D02*
D03*
Y3605000D02*
D03*
D12*
X15750000Y3790000D02*
D03*
Y3915000D02*
D03*
Y4040000D02*
D03*
Y4165000D02*
D03*
D13*
X15245000Y4255000D02*
X15430000D01*
X15030000Y3685000D02*
X15235001D01*
X15430000Y4255000D02*
X15545000D01*
X15635001Y4165000D01*
X15750000D01*
X14914999Y3685000D02*
X15030000D01*
X14780000Y3550000D02*
X14914999Y3685000D01*
X14620000Y3550000D02*
X14780000D01*
X14603999Y3534000D02*
X14620000Y3550000D01*
X14100000Y4040000D02*
X14102000Y4042000D01*
X14350000D01*
X15530000Y3790000D02*
X15750000D01*
X15745000Y3920000D02*
X15750000Y3915000D01*
X14910001Y3920000D02*
X15745000D01*
X14778000Y3788000D02*
X14910001Y3920000D01*
X14603999Y3788000D02*
X14778000D01*
X15749001Y4041000D02*
X15750000Y4040000D01*
X14605000Y4041000D02*
X15749001D01*
X14603999Y4042000D02*
X14605000Y4041000D01*
D14*
X14350000Y3534000D02*
D03*
D15*
X14603999D02*
D03*
X14350000Y3788000D02*
D03*
X14603999D02*
D03*
X14350000Y4042000D02*
D03*
X14603999D02*
D03*
X14350000Y4296000D02*
D03*
X14603999D02*
D03*
X14350000Y4550000D02*
D03*
X14603999D02*
D03*
X14350000Y4804000D02*
D03*
X14603999D02*
D03*
X14350000Y5058000D02*
D03*
X14603999D02*
D03*
X14350000Y5312000D02*
D03*
X14603999D02*
D03*
X14350000Y5566000D02*
D03*
X14603999D02*
D03*
X14350000Y5820000D02*
D03*
X14603999D02*
D03*
X14350000Y6074000D02*
D03*
X14603999D02*
D03*
X14350000Y6328000D02*
D03*
X14603999D02*
D03*
X14350000Y6582000D02*
D03*
X14603999D02*
D03*
X14350000Y6836000D02*
D03*
X14603999D02*
D03*
X14350000Y7090000D02*
D03*
X14603999D02*
D03*
X14350000Y7344000D02*
D03*
X14603999D02*
D03*
X14350000Y7598000D02*
D03*
X14603999D02*
D03*
X14350000Y7852000D02*
D03*
X14603999D02*
D03*
X14350000Y8106000D02*
D03*
X14603999D02*
D03*
X14350000Y8360000D02*
D03*
X14603999D02*
D03*
D16*
X15245000Y4255000D02*
D03*
X15235001Y3685000D02*
D03*
X14102000Y4042000D02*
D03*
X15530000Y3790000D02*
D03*
%TF.MD5,e6bc97d95f3d0f1838df8bcf343efd1a*%
M02*
